{
  "accessors": [
    {
      "bufferView": 2,
      "componentType": 5126,
      "count": 621,
      "max": [
        0.9807900190353394,
        0.9807900190353394,
        -1.6160500049591064
      ],
      "min": [
        -0.9807800054550171,
        -0.9807900190353394,
        -2.5731499195098877
      ],
      "type": "VEC3"
    },
    {
      "bufferView": 2,
      "byteOffset": 7452,
      "componentType": 5126,
      "count": 621,
      "max": [
        0.9861016273498535,
        0.9861016273498535,
        0.9217975735664368
      ],
      "min": [
        -0.9861016273498535,
        -0.9861016273498535,
        -0.9220371246337891
      ],
      "type": "VEC3"
    },
    {
      "bufferView": 1,
      "componentType": 5126,
      "count": 621,
      "max": [
        1.0,
        1.0
      ],
      "min": [
        0.0,
        0.0
      ],
      "type": "VEC2"
    },
    {
      "bufferView": 0,
      "componentType": 5125,
      "count": 2496,
      "type": "SCALAR"
    },
    {
      "bufferView": 2,
      "byteOffset": 14904,
      "componentType": 5126,
      "count": 6237,
      "max": [
        1.0,
        1.0,
        0.0
      ],
      "min": [
        -1.0,
        -1.0,
        -2.8717401027679443
      ],
      "type": "VEC3"
    },
    {
      "bufferView": 2,
      "byteOffset": 89748,
      "componentType": 5126,
      "count": 6237,
      "max": [
        1.0,
        1.0,
        1.0
      ],
      "min": [
        -1.0,
        -1.0,
        -1.0
      ],
      "type": "VEC3"
    },
    {
      "bufferView": 1,
      "byteOffset": 4968,
      "componentType": 5126,
      "count": 6237,
      "max": [
        1.0,
        1.0
      ],
      "min": [
        0.0,
        0.0
      ],
      "type": "VEC2"
    },
    {
      "bufferView": 0,
      "byteOffset": 9984,
      "componentType": 5125,
      "count": 25140,
      "type": "SCALAR"
    },
    {
      "bufferView": 2,
      "byteOffset": 164592,
      "componentType": 5126,
      "count": 636,
      "max": [
        0.4187000095844269,
        0.43830999732017517,
        2.296329975128174
      ],
      "min": [
        -0.4187000095844269,
        -0.43577998876571655,
        -0.0
      ],
      "type": "VEC3"
    },
    {
      "bufferView": 2,
      "byteOffset": 172224,
      "componentType": 5126,
      "count": 636,
      "max": [
        1.0,
        1.0,
        0.9951844215393066
      ],
      "min": [
        -1.0,
        -1.0,
        -1.0
      ],
      "type": "VEC3"
    },
    {
      "bufferView": 1,
      "byteOffset": 54864,
      "componentType": 5126,
      "count": 636,
      "max": [
        0.7191600203514099,
        1.4630399942398071
      ],
      "min": [
        0.2821100056171417,
        0.2821100056171417
      ],
      "type": "VEC2"
    },
    {
      "bufferView": 0,
      "byteOffset": 110544,
      "componentType": 5125,
      "count": 1560,
      "type": "SCALAR"
    },
    {
      "bufferView": 2,
      "byteOffset": 179856,
      "componentType": 5126,
      "count": 16,
      "max": [
        0.04287999868392944,
        0.43316999077796936,
        2.3006200790405273
      ],
      "min": [
        0.01551000028848648,
        -0.38477998971939087,
        2.2646100521087646
      ],
      "type": "VEC3"
    },
    {
      "bufferView": 2,
      "byteOffset": 180048,
      "componentType": 5126,
      "count": 16,
      "max": [
        0.4167466163635254,
        0.5616786479949951,
        0.725503146648407
      ],
      "min": [
        -0.8320522904396057,
        -0.5616786479949951,
        -0.7255189418792725
      ],
      "type": "VEC3"
    },
    {
      "bufferView": 1,
      "byteOffset": 59952,
      "componentType": 5126,
      "count": 16,
      "max": [
        0.7165799736976624,
        0.7165799736976624
      ],
      "min": [
        0.30761000514030457,
        0.30761000514030457
      ],
      "type": "VEC2"
    },
    {
      "bufferView": 0,
      "byteOffset": 116784,
      "componentType": 5125,
      "count": 24,
      "type": "SCALAR"
    },
    {
      "bufferView": 2,
      "byteOffset": 180240,
      "componentType": 5126,
      "count": 545,
      "max": [
        1.0,
        1.0,
        3.43257999420166
      ],
      "min": [
        -1.0,
        -1.0,
        0.7660700082778931
      ],
      "type": "VEC3"
    },
    {
      "bufferView": 2,
      "byteOffset": 186780,
      "componentType": 5126,
      "count": 545,
      "max": [
        0.9997671246528625,
        0.9997671246528625,
        1.0
      ],
      "min": [
        -0.9997671246528625,
        -0.9997671246528625,
        -0.9108076095581055
      ],
      "type": "VEC3"
    },
    {
      "bufferView": 1,
      "byteOffset": 60080,
      "componentType": 5126,
      "count": 545,
      "max": [
        0.0,
        0.0
      ],
      "min": [
        0.0,
        0.0
      ],
      "type": "VEC2"
    },
    {
      "bufferView": 0,
      "byteOffset": 116880,
      "componentType": 5125,
      "count": 3168,
      "type": "SCALAR"
    }
  ],
  "asset": {
    "extras": {
      "author": "rhcreations (https://sketchfab.com/rhcreations)",
      "license": "CC-BY-4.0 (http://creativecommons.org/licenses/by/4.0/)",
      "source": "https://sketchfab.com/3d-models/ceiling-light-with-chain-7467af164bd64d0db09565b70b216e12",
      "title": "Ceiling Light with Chain"
    },
    "generator": "Sketchfab-12.64.0",
    "version": "2.0"
  },
  "bufferViews": [
    {
      "buffer": 0,
      "byteLength": 129552,
      "name": "floatBufferViews",
      "target": 34963
    },
    {
      "buffer": 0,
      "byteLength": 64440,
      "byteOffset": 129552,
      "byteStride": 8,
      "name": "floatBufferViews",
      "target": 34962
    },
    {
      "buffer": 0,
      "byteLength": 193320,
      "byteOffset": 193992,
      "byteStride": 12,
      "name": "floatBufferViews",
      "target": 34962
    }
  ],
  "buffers": [
    {
      "byteLength": 387312,
      "uri": "scene.bin"
    }
  ],
  "extensionsRequired": [
    "KHR_materials_pbrSpecularGlossiness"
  ],
  "extensionsUsed": [
    "KHR_materials_pbrSpecularGlossiness"
  ],
  "images": [
    {
      "uri": "textures/Metal_Material_diffuse.jpeg"
    }
  ],
  "materials": [
    {
      "alphaMode": "BLEND",
      "doubleSided": true,
      "extensions": {
        "KHR_materials_pbrSpecularGlossiness": {
          "diffuseFactor": [
            1.0,
            1.0,
            1.0,
            0.37366615853658536
          ],
          "glossinessFactor": 0.4,
          "specularFactor": [
            1.0,
            1.0,
            1.0
          ]
        }
      },
      "name": "Plastic_Material"
    },
    {
      "doubleSided": true,
      "extensions": {
        "KHR_materials_pbrSpecularGlossiness": {
          "diffuseFactor": [
            1.0,
            1.0,
            1.0,
            1.0
          ],
          "diffuseTexture": {
            "index": 0
          },
          "glossinessFactor": 0.8900709226727486,
          "specularFactor": [
            1.0,
            1.0,
            1.0
          ],
          "specularGlossinessTexture": {
            "index": 0
          }
        }
      },
      "name": "Metal_Material"
    },
    {
      "doubleSided": true,
      "extensions": {
        "KHR_materials_pbrSpecularGlossiness": {
          "diffuseFactor": [
            1.0,
            1.0,
            1.0,
            1.0
          ],
          "glossinessFactor": 0.8368794322013855,
          "specularFactor": [
            0.800000011920929,
            0.800000011920929,
            0.800000011920929
          ]
        }
      },
      "name": "Metal_Material.001"
    },
    {
      "doubleSided": true,
      "extensions": {
        "KHR_materials_pbrSpecularGlossiness": {
          "diffuseFactor": [
            1.0,
            1.0,
            1.0,
            1.0
          ],
          "glossinessFactor": 0.4,
          "specularFactor": [
            1.0,
            1.0,
            1.0
          ]
        }
      },
      "name": "Emmision_Material"
    },
    {
      "doubleSided": true,
      "emissiveFactor": [
        1.0,
        1.0,
        1.0
      ],
      "extensions": {
        "KHR_materials_pbrSpecularGlossiness": {
          "diffuseFactor": [
            1.0,
            1.0,
            1.0,
            1.0
          ],
          "glossinessFactor": 0.4,
          "specularFactor": [
            1.0,
            1.0,
            1.0
          ]
        }
      },
      "name": "Light_Bulb_Glass_Material"
    }
  ],
  "meshes": [
    {
      "name": "Ceiling Light_0",
      "primitives": [
        {
          "attributes": {
            "NORMAL": 1,
            "POSITION": 0,
            "TEXCOORD_0": 2
          },
          "indices": 3,
          "material": 0,
          "mode": 4
        }
      ]
    },
    {
      "name": "Ceiling Light_1",
      "primitives": [
        {
          "attributes": {
            "NORMAL": 5,
            "POSITION": 4,
            "TEXCOORD_0": 6
          },
          "indices": 7,
          "material": 1,
          "mode": 4
        }
      ]
    },
    {
      "name": "Light Bulb_0",
      "primitives": [
        {
          "attributes": {
            "NORMAL": 9,
            "POSITION": 8,
            "TEXCOORD_0": 10
          },
          "indices": 11,
          "material": 2,
          "mode": 4
        }
      ]
    },
    {
      "name": "Light Bulb_1",
      "primitives": [
        {
          "attributes": {
            "NORMAL": 13,
            "POSITION": 12,
            "TEXCOORD_0": 14
          },
          "indices": 15,
          "material": 3,
          "mode": 4
        }
      ]
    },
    {
      "name": "Light Bulb_2",
      "primitives": [
        {
          "attributes": {
            "NORMAL": 17,
            "POSITION": 16,
            "TEXCOORD_0": 18
          },
          "indices": 19,
          "material": 4,
          "mode": 4
        }
      ]
    }
  ],
  "nodes": [
    {
      "children": [
        1
      ],
      "matrix": [
        1.0,
        0.0,
        0.0,
        0.0,
        0.0,
        2.220446049250313e-16,
        -1.0,
        0.0,
        0.0,
        1.0,
        2.220446049250313e-16,
        0.0,
        0.0,
        0.0,
        0.0,
        1.0
      ],
      "name": "Sketchfab_model"
    },
    {
      "children": [
        2
      ],
      "name": "Root"
    },
    {
      "children": [
        3,
        4,
        5
      ],
      "matrix": [
        3.47073,
        0.0,
        0.0,
        0.0,
        0.0,
        3.47073,
        0.0,
        0.0,
        0.0,
        0.0,
        3.20481,
        0.0,
        0.0,
        0.0,
        0.0,
        1.0
      ],
      "name": "Ceiling Light"
    },
    {
      "mesh": 0,
      "name": "Ceiling Light_0"
    },
    {
      "mesh": 1,
      "name": "Ceiling Light_1"
    },
    {
      "children": [
        6,
        7,
        8
      ],
      "matrix": [
        0.17026000000000002,
        0.0,
        0.0,
        0.0,
        0.0,
        -0.17026000000000002,
        -0.0,
        0.0,
        0.0,
        0.0,
        -0.18439000000000003,
        0.0,
        -0.0,
        0.0,
        -2.09807,
        1.0
      ],
      "name": "Light Bulb"
    },
    {
      "mesh": 2,
      "name": "Light Bulb_0"
    },
    {
      "mesh": 3,
      "name": "Light Bulb_1"
    },
    {
      "mesh": 4,
      "name": "Light Bulb_2"
    }
  ],
  "samplers": [
    {
      "magFilter": 9729,
      "minFilter": 9987,
      "wrapS": 10497,
      "wrapT": 10497
    }
  ],
  "scene": 0,
  "scenes": [
    {
      "name": "Sketchfab_Scene",
      "nodes": [
        0
      ]
    }
  ],
  "textures": [
    {
      "sampler": 0,
      "source": 0
    }
  ]
}
